<?xml version="1.0" encoding="UTF-8" standalone="no"?>
<!DOCTYPE svg PUBLIC "-//W3C//DTD SVG 1.1//EN"
 "http://www.w3.org/Graphics/SVG/1.1/DTD/svg11.dtd">
<!-- Generated by graphviz version 2.40.1 (20161225.0304)
 -->
<!-- Title: G Pages: 1 -->
<svg width="636pt" height="365pt"
 viewBox="0.00 0.00 636.17 365.30" xmlns="http://www.w3.org/2000/svg" xmlns:xlink="http://www.w3.org/1999/xlink">
<g id="graph0" class="graph" transform="scale(1 1) rotate(0) translate(21.6 343.6986)">
<title>G</title>
<polygon fill="#111111" stroke="transparent" points="-21.6,21.6 -21.6,-343.6986 614.5707,-343.6986 614.5707,21.6 -21.6,21.6"/>
<!-- clock.js -->
<g id="node1" class="node">
<title>clock.js</title>
<path fill="none" stroke="#cfffac" d="M547.4947,-322.1482C547.4947,-322.1482 501.8334,-322.1482 501.8334,-322.1482 497.8004,-322.1482 493.7675,-318.1152 493.7675,-314.0823 493.7675,-314.0823 493.7675,-306.0164 493.7675,-306.0164 493.7675,-301.9834 497.8004,-297.9505 501.8334,-297.9505 501.8334,-297.9505 547.4947,-297.9505 547.4947,-297.9505 551.5277,-297.9505 555.5606,-301.9834 555.5606,-306.0164 555.5606,-306.0164 555.5606,-314.0823 555.5606,-314.0823 555.5606,-318.1152 551.5277,-322.1482 547.4947,-322.1482"/>
<text text-anchor="middle" x="524.6641" y="-306.8986" font-family="Arial" font-size="14.00" fill="#cfffac">clock.js</text>
</g>
<!-- constants.js -->
<g id="node2" class="node">
<title>constants.js</title>
<path fill="none" stroke="#cfffac" d="M561.522,-280.1482C561.522,-280.1482 487.8061,-280.1482 487.8061,-280.1482 483.7731,-280.1482 479.7402,-276.1152 479.7402,-272.0823 479.7402,-272.0823 479.7402,-264.0164 479.7402,-264.0164 479.7402,-259.9834 483.7731,-255.9505 487.8061,-255.9505 487.8061,-255.9505 561.522,-255.9505 561.522,-255.9505 565.555,-255.9505 569.5879,-259.9834 569.5879,-264.0164 569.5879,-264.0164 569.5879,-272.0823 569.5879,-272.0823 569.5879,-276.1152 565.555,-280.1482 561.522,-280.1482"/>
<text text-anchor="middle" x="524.6641" y="-264.8986" font-family="Arial" font-size="14.00" fill="#cfffac">constants.js</text>
</g>
<!-- core.js -->
<g id="node3" class="node">
<title>core.js</title>
<path fill="none" stroke="#ff6c60" d="M368.0576,-247.1482C368.0576,-247.1482 326.7197,-247.1482 326.7197,-247.1482 322.6868,-247.1482 318.6538,-243.1152 318.6538,-239.0823 318.6538,-239.0823 318.6538,-231.0164 318.6538,-231.0164 318.6538,-226.9834 322.6868,-222.9505 326.7197,-222.9505 326.7197,-222.9505 368.0576,-222.9505 368.0576,-222.9505 372.0906,-222.9505 376.1235,-226.9834 376.1235,-231.0164 376.1235,-231.0164 376.1235,-239.0823 376.1235,-239.0823 376.1235,-243.1152 372.0906,-247.1482 368.0576,-247.1482"/>
<text text-anchor="middle" x="347.3887" y="-231.8986" font-family="Arial" font-size="14.00" fill="#ff6c60">core.js</text>
</g>
<!-- core.js&#45;&gt;clock.js -->
<g id="edge1" class="edge">
<title>core.js&#45;&gt;clock.js</title>
<path fill="none" stroke="#757575" d="M369.4447,-247.3022C391.1222,-259.0255 425.3673,-276.7011 456.3574,-289.0493 465.1599,-292.5567 474.7899,-295.8405 483.9701,-298.7218"/>
<polygon fill="#757575" stroke="#757575" points="483.1088,-302.1182 493.6947,-301.682 485.1473,-295.4215 483.1088,-302.1182"/>
</g>
<!-- core.js&#45;&gt;constants.js -->
<g id="edge2" class="edge">
<title>core.js&#45;&gt;constants.js</title>
<path fill="none" stroke="#757575" d="M376.2656,-240.4248C401.3875,-245.1013 438.4976,-252.0093 469.322,-257.7473"/>
<polygon fill="#757575" stroke="#757575" points="469.0364,-261.2542 479.5081,-259.6435 470.3175,-254.3724 469.0364,-261.2542"/>
</g>
<!-- create&#45;element.js -->
<g id="node4" class="node">
<title>create&#45;element.js</title>
<path fill="none" stroke="#cfffac" d="M578.4777,-196.1482C578.4777,-196.1482 470.8505,-196.1482 470.8505,-196.1482 466.8175,-196.1482 462.7846,-192.1152 462.7846,-188.0823 462.7846,-188.0823 462.7846,-180.0164 462.7846,-180.0164 462.7846,-175.9834 466.8175,-171.9505 470.8505,-171.9505 470.8505,-171.9505 578.4777,-171.9505 578.4777,-171.9505 582.5106,-171.9505 586.5436,-175.9834 586.5436,-180.0164 586.5436,-180.0164 586.5436,-188.0823 586.5436,-188.0823 586.5436,-192.1152 582.5106,-196.1482 578.4777,-196.1482"/>
<text text-anchor="middle" x="524.6641" y="-180.8986" font-family="Arial" font-size="14.00" fill="#cfffac">create&#45;element.js</text>
</g>
<!-- core.js&#45;&gt;create&#45;element.js -->
<g id="edge3" class="edge">
<title>core.js&#45;&gt;create&#45;element.js</title>
<path fill="none" stroke="#757575" d="M376.2656,-226.7418C402.2935,-219.2539 441.1899,-208.0638 472.6315,-199.0184"/>
<polygon fill="#757575" stroke="#757575" points="473.9097,-202.2928 482.5522,-196.1644 471.9743,-195.5656 473.9097,-202.2928"/>
</g>
<!-- events.js -->
<g id="node5" class="node">
<title>events.js</title>
<path fill="none" stroke="#cfffac" d="M552.3467,-136.1482C552.3467,-136.1482 496.9815,-136.1482 496.9815,-136.1482 492.9485,-136.1482 488.9156,-132.1152 488.9156,-128.0823 488.9156,-128.0823 488.9156,-120.0164 488.9156,-120.0164 488.9156,-115.9834 492.9485,-111.9505 496.9815,-111.9505 496.9815,-111.9505 552.3467,-111.9505 552.3467,-111.9505 556.3796,-111.9505 560.4125,-115.9834 560.4125,-120.0164 560.4125,-120.0164 560.4125,-128.0823 560.4125,-128.0823 560.4125,-132.1152 556.3796,-136.1482 552.3467,-136.1482"/>
<text text-anchor="middle" x="524.6641" y="-120.8986" font-family="Arial" font-size="14.00" fill="#cfffac">events.js</text>
</g>
<!-- core.js&#45;&gt;events.js -->
<g id="edge4" class="edge">
<title>core.js&#45;&gt;events.js</title>
<path fill="none" stroke="#757575" d="M376.0184,-231.4011C390.3463,-228.4906 407.3586,-223.2935 420.3574,-214.0493 442.9677,-197.9698 435.8213,-181.7053 456.3574,-163.0493 465.7543,-154.5128 477.3346,-147.033 488.2733,-140.9682"/>
<polygon fill="#757575" stroke="#757575" points="490.0498,-143.988 497.2488,-136.2145 486.7735,-137.802 490.0498,-143.988"/>
</g>
<!-- spark.js -->
<g id="node6" class="node">
<title>spark.js</title>
<path fill="none" stroke="#ff6c60" d="M548.833,-238.1482C548.833,-238.1482 500.4951,-238.1482 500.4951,-238.1482 496.4622,-238.1482 492.4293,-234.1152 492.4293,-230.0823 492.4293,-230.0823 492.4293,-222.0164 492.4293,-222.0164 492.4293,-217.9834 496.4622,-213.9505 500.4951,-213.9505 500.4951,-213.9505 548.833,-213.9505 548.833,-213.9505 552.8659,-213.9505 556.8989,-217.9834 556.8989,-222.0164 556.8989,-222.0164 556.8989,-230.0823 556.8989,-230.0823 556.8989,-234.1152 552.8659,-238.1482 548.833,-238.1482"/>
<text text-anchor="middle" x="524.6641" y="-222.8986" font-family="Arial" font-size="14.00" fill="#ff6c60">spark.js</text>
</g>
<!-- core.js&#45;&gt;spark.js -->
<g id="edge5" class="edge">
<title>core.js&#45;&gt;spark.js</title>
<path fill="none" stroke="#757575" d="M376.2656,-228.4426C405.0379,-225.1088 449.5356,-222.6117 482.3049,-222.345"/>
<polygon fill="#757575" stroke="#757575" points="482.4997,-225.845 492.4974,-222.3386 482.4952,-218.845 482.4997,-225.845"/>
</g>
<!-- spark.js&#45;&gt;core.js -->
<g id="edge18" class="edge">
<title>spark.js&#45;&gt;core.js</title>
<path fill="none" stroke="#757575" d="M492.4974,-233.0262C462.7177,-236.2813 418.3655,-238.6554 386.5394,-238.7727"/>
<polygon fill="#757575" stroke="#757575" points="386.2821,-235.2715 376.2656,-238.724 386.2488,-242.2715 386.2821,-235.2715"/>
</g>
<!-- index.js -->
<g id="node7" class="node">
<title>index.js</title>
<path fill="none" stroke="#c6c5fe" d="M55.639,-165.1482C55.639,-165.1482 7.8298,-165.1482 7.8298,-165.1482 3.7968,-165.1482 -.2361,-161.1152 -.2361,-157.0823 -.2361,-157.0823 -.2361,-149.0164 -.2361,-149.0164 -.2361,-144.9834 3.7968,-140.9505 7.8298,-140.9505 7.8298,-140.9505 55.639,-140.9505 55.639,-140.9505 59.6719,-140.9505 63.7049,-144.9834 63.7049,-149.0164 63.7049,-149.0164 63.7049,-157.0823 63.7049,-157.0823 63.7049,-161.1152 59.6719,-165.1482 55.639,-165.1482"/>
<text text-anchor="middle" x="31.7344" y="-149.8986" font-family="Arial" font-size="14.00" fill="#c6c5fe">index.js</text>
</g>
<!-- index.js&#45;&gt;core.js -->
<g id="edge6" class="edge">
<title>index.js&#45;&gt;core.js</title>
<path fill="none" stroke="#757575" d="M50.87,-165.2547C64.0569,-173.1469 82.2444,-183.0341 99.4688,-189.0493 170.8492,-213.9775 258.7608,-226.2073 308.4067,-231.5264"/>
<polygon fill="#757575" stroke="#757575" points="308.0934,-235.0126 318.4001,-232.5586 308.8127,-228.0496 308.0934,-235.0126"/>
</g>
<!-- index.js&#45;&gt;create&#45;element.js -->
<g id="edge7" class="edge">
<title>index.js&#45;&gt;create&#45;element.js</title>
<path fill="none" stroke="#757575" d="M63.5166,-153.8959C129.8945,-155.8198 288.0647,-161.2173 420.3574,-172.0493 430.9286,-172.9149 442.083,-174.0069 453.0094,-175.1778"/>
<polygon fill="#757575" stroke="#757575" points="452.6339,-178.6575 462.9565,-176.2709 453.3987,-171.6994 452.6339,-178.6575"/>
</g>
<!-- index.js&#45;&gt;events.js -->
<g id="edge8" class="edge">
<title>index.js&#45;&gt;events.js</title>
<path fill="none" stroke="#757575" d="M63.5963,-145.3108C74.8618,-142.882 87.6657,-140.467 99.4688,-139.0493 236.5778,-122.5806 400.1979,-122.166 478.4818,-123.1403"/>
<polygon fill="#757575" stroke="#757575" points="478.9024,-126.6464 488.95,-123.2855 478.9995,-119.647 478.9024,-126.6464"/>
</g>
<!-- nodes/rect.js -->
<g id="node8" class="node">
<title>nodes/rect.js</title>
<path fill="none" stroke="#cfffac" d="M208.7512,-87.1482C208.7512,-87.1482 129.1374,-87.1482 129.1374,-87.1482 125.1045,-87.1482 121.0715,-83.1152 121.0715,-79.0823 121.0715,-79.0823 121.0715,-71.0164 121.0715,-71.0164 121.0715,-66.9834 125.1045,-62.9505 129.1374,-62.9505 129.1374,-62.9505 208.7512,-62.9505 208.7512,-62.9505 212.7842,-62.9505 216.8171,-66.9834 216.8171,-71.0164 216.8171,-71.0164 216.8171,-79.0823 216.8171,-79.0823 216.8171,-83.1152 212.7842,-87.1482 208.7512,-87.1482"/>
<text text-anchor="middle" x="168.9443" y="-71.8986" font-family="Arial" font-size="14.00" fill="#cfffac">nodes/rect.js</text>
</g>
<!-- index.js&#45;&gt;nodes/rect.js -->
<g id="edge9" class="edge">
<title>index.js&#45;&gt;nodes/rect.js</title>
<path fill="none" stroke="#757575" d="M45.157,-140.7992C58.2503,-129.3391 79.1146,-112.339 99.4688,-101.0493 106.2789,-97.272 113.7481,-93.8285 121.1851,-90.7718"/>
<polygon fill="#757575" stroke="#757575" points="122.5001,-94.0157 130.536,-87.111 119.9482,-87.4975 122.5001,-94.0157"/>
</g>
<!-- nodes/withClock.js -->
<g id="node9" class="node">
<title>nodes/withClock.js</title>
<path fill="none" stroke="#c6c5fe" d="M226.816,-281.1482C226.816,-281.1482 111.0727,-281.1482 111.0727,-281.1482 107.0398,-281.1482 103.0068,-277.1152 103.0068,-273.0823 103.0068,-273.0823 103.0068,-265.0164 103.0068,-265.0164 103.0068,-260.9834 107.0398,-256.9505 111.0727,-256.9505 111.0727,-256.9505 226.816,-256.9505 226.816,-256.9505 230.8489,-256.9505 234.8819,-260.9834 234.8819,-265.0164 234.8819,-265.0164 234.8819,-273.0823 234.8819,-273.0823 234.8819,-277.1152 230.8489,-281.1482 226.816,-281.1482"/>
<text text-anchor="middle" x="168.9443" y="-265.8986" font-family="Arial" font-size="14.00" fill="#c6c5fe">nodes/withClock.js</text>
</g>
<!-- index.js&#45;&gt;nodes/withClock.js -->
<g id="edge10" class="edge">
<title>index.js&#45;&gt;nodes/withClock.js</title>
<path fill="none" stroke="#757575" d="M37.9548,-165.2901C48.2651,-184.4376 70.6475,-221.507 99.4688,-243.0493 104.4783,-246.7936 110.0873,-250.053 115.8881,-252.8767"/>
<polygon fill="#757575" stroke="#757575" points="114.5425,-256.1086 125.1029,-256.9623 117.3798,-249.7094 114.5425,-256.1086"/>
</g>
<!-- renderer/renderer.js -->
<g id="node10" class="node">
<title>renderer/renderer.js</title>
<path fill="none" stroke="#c6c5fe" d="M230.3296,-45.1482C230.3296,-45.1482 107.559,-45.1482 107.559,-45.1482 103.5261,-45.1482 99.4932,-41.1152 99.4932,-37.0823 99.4932,-37.0823 99.4932,-29.0164 99.4932,-29.0164 99.4932,-24.9834 103.5261,-20.9505 107.559,-20.9505 107.559,-20.9505 230.3296,-20.9505 230.3296,-20.9505 234.3626,-20.9505 238.3955,-24.9834 238.3955,-29.0164 238.3955,-29.0164 238.3955,-37.0823 238.3955,-37.0823 238.3955,-41.1152 234.3626,-45.1482 230.3296,-45.1482"/>
<text text-anchor="middle" x="168.9443" y="-29.8986" font-family="Arial" font-size="14.00" fill="#c6c5fe">renderer/renderer.js</text>
</g>
<!-- index.js&#45;&gt;renderer/renderer.js -->
<g id="edge11" class="edge">
<title>index.js&#45;&gt;renderer/renderer.js</title>
<path fill="none" stroke="#757575" d="M36.847,-140.7016C46.1591,-119.7305 67.8828,-77.1832 99.4688,-54.0493 101.5591,-52.5183 103.7618,-51.0978 106.0455,-49.7799"/>
<polygon fill="#757575" stroke="#757575" points="107.8223,-52.8042 115.1879,-45.1885 104.6808,-46.5487 107.8223,-52.8042"/>
</g>
<!-- store.js -->
<g id="node11" class="node">
<title>store.js</title>
<path fill="none" stroke="#c6c5fe" d="M369.9469,-205.1482C369.9469,-205.1482 324.8304,-205.1482 324.8304,-205.1482 320.7975,-205.1482 316.7645,-201.1152 316.7645,-197.0823 316.7645,-197.0823 316.7645,-189.0164 316.7645,-189.0164 316.7645,-184.9834 320.7975,-180.9505 324.8304,-180.9505 324.8304,-180.9505 369.9469,-180.9505 369.9469,-180.9505 373.9799,-180.9505 378.0128,-184.9834 378.0128,-189.0164 378.0128,-189.0164 378.0128,-197.0823 378.0128,-197.0823 378.0128,-201.1152 373.9799,-205.1482 369.9469,-205.1482"/>
<text text-anchor="middle" x="347.3887" y="-189.8986" font-family="Arial" font-size="14.00" fill="#c6c5fe">store.js</text>
</g>
<!-- index.js&#45;&gt;store.js -->
<g id="edge12" class="edge">
<title>index.js&#45;&gt;store.js</title>
<path fill="none" stroke="#757575" d="M63.6596,-160.3279C74.9306,-162.7167 87.7218,-165.224 99.4688,-167.0493 171.9796,-178.3166 257.1975,-186.0644 306.4798,-190.012"/>
<polygon fill="#757575" stroke="#757575" points="306.4844,-193.5231 316.7285,-190.8195 307.0343,-186.5447 306.4844,-193.5231"/>
</g>
<!-- nodes/withClock.js&#45;&gt;clock.js -->
<g id="edge13" class="edge">
<title>nodes/withClock.js&#45;&gt;clock.js</title>
<path fill="none" stroke="#757575" d="M235.0188,-276.665C307.7632,-285.0495 422.4624,-298.2696 483.4053,-305.2939"/>
<polygon fill="#757575" stroke="#757575" points="483.0889,-308.7805 493.4239,-306.4486 483.8904,-301.8265 483.0889,-308.7805"/>
</g>
<!-- nodes/withClock.js&#45;&gt;core.js -->
<g id="edge14" class="edge">
<title>nodes/withClock.js&#45;&gt;core.js</title>
<path fill="none" stroke="#757575" d="M232.3596,-256.9665C257.7847,-252.1221 286.2689,-246.6948 308.5316,-242.453"/>
<polygon fill="#757575" stroke="#757575" points="309.4357,-245.8438 318.6039,-240.5338 308.1255,-238.9675 309.4357,-245.8438"/>
</g>
<!-- renderer/programs.js -->
<g id="node12" class="node">
<title>renderer/programs.js</title>
<path fill="none" stroke="#c6c5fe" d="M412.2603,-24.1482C412.2603,-24.1482 282.517,-24.1482 282.517,-24.1482 278.4841,-24.1482 274.4512,-20.1152 274.4512,-16.0823 274.4512,-16.0823 274.4512,-8.0164 274.4512,-8.0164 274.4512,-3.9834 278.4841,.0495 282.517,.0495 282.517,.0495 412.2603,.0495 412.2603,.0495 416.2932,.0495 420.3262,-3.9834 420.3262,-8.0164 420.3262,-8.0164 420.3262,-16.0823 420.3262,-16.0823 420.3262,-20.1152 416.2932,-24.1482 412.2603,-24.1482"/>
<text text-anchor="middle" x="347.3887" y="-8.8986" font-family="Arial" font-size="14.00" fill="#c6c5fe">renderer/programs.js</text>
</g>
<!-- renderer/renderer.js&#45;&gt;renderer/programs.js -->
<g id="edge16" class="edge">
<title>renderer/renderer.js&#45;&gt;renderer/programs.js</title>
<path fill="none" stroke="#757575" d="M238.4465,-24.87C246.8869,-23.8767 255.5752,-22.8543 264.1883,-21.8407"/>
<polygon fill="#757575" stroke="#757575" points="264.723,-25.302 274.2454,-20.6571 263.9048,-18.3499 264.723,-25.302"/>
</g>
<!-- renderer/textures.js -->
<g id="node14" class="node">
<title>renderer/textures.js</title>
<path fill="none" stroke="#cfffac" d="M407.4298,-66.1482C407.4298,-66.1482 287.3476,-66.1482 287.3476,-66.1482 283.3146,-66.1482 279.2817,-62.1152 279.2817,-58.0823 279.2817,-58.0823 279.2817,-50.0164 279.2817,-50.0164 279.2817,-45.9834 283.3146,-41.9505 287.3476,-41.9505 287.3476,-41.9505 407.4298,-41.9505 407.4298,-41.9505 411.4627,-41.9505 415.4957,-45.9834 415.4957,-50.0164 415.4957,-50.0164 415.4957,-58.0823 415.4957,-58.0823 415.4957,-62.1152 411.4627,-66.1482 407.4298,-66.1482"/>
<text text-anchor="middle" x="347.3887" y="-50.8986" font-family="Arial" font-size="14.00" fill="#cfffac">renderer/textures.js</text>
</g>
<!-- renderer/renderer.js&#45;&gt;renderer/textures.js -->
<g id="edge17" class="edge">
<title>renderer/renderer.js&#45;&gt;renderer/textures.js</title>
<path fill="none" stroke="#757575" d="M238.4465,-41.2286C248.5016,-42.4119 258.9085,-43.6366 269.1209,-44.8385"/>
<polygon fill="#757575" stroke="#757575" points="268.9077,-48.3375 279.2483,-46.0303 269.7259,-41.3854 268.9077,-48.3375"/>
</g>
<!-- store.js&#45;&gt;create&#45;element.js -->
<g id="edge19" class="edge">
<title>store.js&#45;&gt;create&#45;element.js</title>
<path fill="none" stroke="#757575" d="M378.2677,-191.4816C398.8479,-190.4368 426.7861,-189.0184 452.7404,-187.7008"/>
<polygon fill="#757575" stroke="#757575" points="453.1398,-191.1851 462.9495,-187.1825 452.7848,-184.1941 453.1398,-191.1851"/>
</g>
<!-- renderer/shaders.js -->
<g id="node13" class="node">
<title>renderer/shaders.js</title>
<path fill="none" stroke="#cfffac" d="M584.712,-24.1482C584.712,-24.1482 464.6161,-24.1482 464.6161,-24.1482 460.5832,-24.1482 456.5502,-20.1152 456.5502,-16.0823 456.5502,-16.0823 456.5502,-8.0164 456.5502,-8.0164 456.5502,-3.9834 460.5832,.0495 464.6161,.0495 464.6161,.0495 584.712,.0495 584.712,.0495 588.7449,.0495 592.7779,-3.9834 592.7779,-8.0164 592.7779,-8.0164 592.7779,-16.0823 592.7779,-16.0823 592.7779,-20.1152 588.7449,-24.1482 584.712,-24.1482"/>
<text text-anchor="middle" x="524.6641" y="-8.8986" font-family="Arial" font-size="14.00" fill="#cfffac">renderer/shaders.js</text>
</g>
<!-- renderer/programs.js&#45;&gt;renderer/shaders.js -->
<g id="edge15" class="edge">
<title>renderer/programs.js&#45;&gt;renderer/shaders.js</title>
<path fill="none" stroke="#757575" d="M420.5168,-12.0493C429.0858,-12.0493 437.8543,-12.0493 446.4886,-12.0493"/>
<polygon fill="#757575" stroke="#757575" points="446.5427,-15.5494 456.5427,-12.0493 446.5427,-8.5494 446.5427,-15.5494"/>
</g>
</g>
</svg>
